<svg xmlns="http://www.w3.org/2000/svg" viewBox="0 0 64 64" role="img" aria-label="Ícono de información reproductiva">
  <rect width="64" height="64" rx="18" fill="#d9f5df"/>
  <path d="M22 24c0-5 4-9 9-9h2c5 0 9 4 9 9 0 9-10 17-10 17S22 33 22 24z" fill="#ffffff" stroke="#0b4b2d" stroke-width="3" stroke-linejoin="round"/>
  <path d="M20 47c4-5 10-7 17-5M44 18c3 1 5 4 5 8 0 4-2 7-5 9M18 38c-3-2-5-5-5-9 0-3 1-6 4-8" fill="none" stroke="#19a34a" stroke-width="3" stroke-linecap="round"/>
  <path d="M44 18l4-.2-.6 4M18 38l-4 .3.6-4" fill="none" stroke="#19a34a" stroke-width="3" stroke-linecap="round" stroke-linejoin="round"/>
</svg>